# xmcd
#
# Track frame offsets:
#	150
#	14645
#	26853
#	41818
#	52437
#	63038
#	74953
#	87236
#	99077
#
# Disc length: 1511 seconds
#
# Revision: 1
# Processed by: cddbd v1.5.2PL0 Copyright (c) Steve Scherf et al.
# Submitted via: audiograbber 1.83.01
#
DISCID=8305e509
DTITLE=Mel Street - Borrowed Angel
DYEAR=2005
DGENRE=Country
TTITLE0=Borrowed Angel
TTITLE1=Lucille
TTITLE2=Don't Lead Me On
TTITLE3=Walk On By
TTITLE4=Today I Started Loving You Again
TTITLE5=Burning Love
TTITLE6=I Really Don't Want To Know
TTITLE7=Wine Me Up
TTITLE8=I Love You Because
EXTD=
EXTT0=
EXTT1=
EXTT2=
EXTT3=
EXTT4=
EXTT5=
EXTT6=
EXTT7=
EXTT8=
PLAYORDER=
